HIERARCHY
ROOT hip
{
  OFFSET 0 90.174 2.4664
  CHANNELS 6 Xposition Yposition Zposition Zrotation Xrotation Yrotation
  JOINT abdomen
  {
    OFFSET 0 -1.186 -1.5018
    CHANNELS 6 Xposition Yposition Zposition Zrotation Xrotation Yrotation
    JOINT abdomen2
    {
      OFFSET 0 9.964 0.2134
      CHANNELS 6 Xposition Yposition Zposition Zrotation Xrotation Yrotation
      JOINT chest
      {
        OFFSET 0 13.134 -3.2573
        CHANNELS 6 Xposition Yposition Zposition Zrotation Xrotation Yrotation
        JOINT neck
        {
          OFFSET 0 20.686 -1.6905
          CHANNELS 6 Xposition Yposition Zposition Zrotation Xrotation Yrotation
          JOINT head
          {
            OFFSET 0 7.238 -0.1237
            CHANNELS 6 Xposition Yposition Zposition Zrotation Xrotation Yrotation
            End Site
            {
              OFFSET 0 0 0
            }
          }
        }
        JOINT lCollar
        {
          OFFSET 1.7069 20.075 5.0056
          CHANNELS 6 Xposition Yposition Zposition Zrotation Xrotation Yrotation
          JOINT lShldr
          {
            OFFSET 13.6458 -0.047 -4.849
            CHANNELS 6 Xposition Yposition Zposition Zrotation Xrotation Yrotation
            JOINT lForeArm
            {
              OFFSET 28.3255 -0.9759 2.2888
              CHANNELS 6 Xposition Yposition Zposition Zrotation Xrotation Yrotation
              JOINT lHand
              {
                OFFSET 22.1583 -0.53 10.8316
                CHANNELS 6 Xposition Yposition Zposition Zrotation Xrotation Yrotation
                JOINT lThumb1
                {
                  OFFSET 0.786 0.112 2.5817
                  CHANNELS 6 Xposition Yposition Zposition Zrotation Xrotation Yrotation
                  JOINT lThumb2
                  {
                    OFFSET 0.3601 -0.878 4.2331
                    CHANNELS 6 Xposition Yposition Zposition Zrotation Xrotation Yrotation
                    JOINT lThumb2_End
                    {
                      OFFSET 1.8127 -1.216 2.2227
                      CHANNELS 6 Xposition Yposition Zposition Zrotation Xrotation Yrotation
                      End Site
                      {
                        OFFSET 0.0181 -0.0122 0.0222
                      }
                    }
                  }
                }
                JOINT lCarpal1
                {
                  OFFSET 0.9571 1.114 1.7695
                  CHANNELS 6 Xposition Yposition Zposition Zrotation Xrotation Yrotation
                  JOINT lIndex1
                  {
                    OFFSET 4.1246 0.487 4.1451
                    CHANNELS 6 Xposition Yposition Zposition Zrotation Xrotation Yrotation
                    JOINT lIndex2
                    {
                      OFFSET 3.4052 -1.454 2.7682
                      CHANNELS 6 Xposition Yposition Zposition Zrotation Xrotation Yrotation
                      JOINT lIndex2_End
                      {
                        OFFSET 1.4531 -1.795 1.2713
                        CHANNELS 6 Xposition Yposition Zposition Zrotation Xrotation Yrotation
                        End Site
                        {
                          OFFSET 0.0145 -0.0179 0.0127
                        }
                      }
                    }
                  }
                  JOINT lMid1
                  {
                    OFFSET 5.6954 0.21 2.1184
                    CHANNELS 6 Xposition Yposition Zposition Zrotation Xrotation Yrotation
                    JOINT lMid2
                    {
                      OFFSET 3.9766 -1.54 2.3863
                      CHANNELS 6 Xposition Yposition Zposition Zrotation Xrotation Yrotation
                      JOINT lMid2_End
                      {
                        OFFSET 1.4042 -1.926 1.125
                        CHANNELS 6 Xposition Yposition Zposition Zrotation Xrotation Yrotation
                        End Site
                        {
                          OFFSET 0.014 -0.0193 0.0113
                        }
                      }
                    }
                  }
                }
                JOINT lCarpal2
                {
                  OFFSET 2.0956 0.66 -0.3894
                  CHANNELS 6 Xposition Yposition Zposition Zrotation Xrotation Yrotation
                  JOINT lRing1
                  {
                    OFFSET 5.0395 -0.09 2.4971
                    CHANNELS 6 Xposition Yposition Zposition Zrotation Xrotation Yrotation
                    JOINT lRing2
                    {
                      OFFSET 3.7921 -1.552 1.4806
                      CHANNELS 6 Xposition Yposition Zposition Zrotation Xrotation Yrotation
                      JOINT lRing2_End
                      {
                        OFFSET 1.4655 -1.808 0.9609
                        CHANNELS 6 Xposition Yposition Zposition Zrotation Xrotation Yrotation
                        End Site
                        {
                          OFFSET 0.0147 -0.0181 0.0096
                        }
                      }
                    }
                  }
                  JOINT lPinky1
                  {
                    OFFSET 4.9141 -1.269 0.3591
                    CHANNELS 6 Xposition Yposition Zposition Zrotation Xrotation Yrotation
                    JOINT lPinky2
                    {
                      OFFSET 3.1477 -1.685 0.8462
                      CHANNELS 6 Xposition Yposition Zposition Zrotation Xrotation Yrotation
                      JOINT lPinky2_End
                      {
                        OFFSET 0.8055 -1.585 0.7955
                        CHANNELS 6 Xposition Yposition Zposition Zrotation Xrotation Yrotation
                        End Site
                        {
                          OFFSET 0.0081 -0.0158 0.008
                        }
                      }
                    }
                  }
                }
              }
            }
          }
        }
        JOINT rCollar
        {
          OFFSET -1.7069 20.075 5.0056
          CHANNELS 6 Xposition Yposition Zposition Zrotation Xrotation Yrotation
          JOINT rShldr
          {
            OFFSET -13.6458 -0.047 -4.849
            CHANNELS 6 Xposition Yposition Zposition Zrotation Xrotation Yrotation
            JOINT rForeArm
            {
              OFFSET -28.3255 -0.9759 2.2888
              CHANNELS 6 Xposition Yposition Zposition Zrotation Xrotation Yrotation
              JOINT rHand
              {
                OFFSET -22.1583 -0.53 10.8316
                CHANNELS 6 Xposition Yposition Zposition Zrotation Xrotation Yrotation
                JOINT rThumb1
                {
                  OFFSET -0.786 0.112 2.5817
                  CHANNELS 6 Xposition Yposition Zposition Zrotation Xrotation Yrotation
                  JOINT rThumb2
                  {
                    OFFSET -0.3601 -0.878 4.2331
                    CHANNELS 6 Xposition Yposition Zposition Zrotation Xrotation Yrotation
                    JOINT rThumb2_End
                    {
                      OFFSET -1.8127 -1.216 2.2227
                      CHANNELS 6 Xposition Yposition Zposition Zrotation Xrotation Yrotation
                      End Site
                      {
                        OFFSET -0.0181 -0.0122 0.0222
                      }
                    }
                  }
                }
                JOINT rCarpal1
                {
                  OFFSET -0.9571 1.114 1.7695
                  CHANNELS 6 Xposition Yposition Zposition Zrotation Xrotation Yrotation
                  JOINT rIndex1
                  {
                    OFFSET -4.1246 0.487 4.1451
                    CHANNELS 6 Xposition Yposition Zposition Zrotation Xrotation Yrotation
                    JOINT rIndex2
                    {
                      OFFSET -3.4052 -1.454 2.7682
                      CHANNELS 6 Xposition Yposition Zposition Zrotation Xrotation Yrotation
                      JOINT rIndex2_End
                      {
                        OFFSET -1.4531 -1.795 1.2713
                        CHANNELS 6 Xposition Yposition Zposition Zrotation Xrotation Yrotation
                        End Site
                        {
                          OFFSET -0.0145 -0.018 0.0127
                        }
                      }
                    }
                  }
                  JOINT rMid1
                  {
                    OFFSET -5.6954 0.21 2.1184
                    CHANNELS 6 Xposition Yposition Zposition Zrotation Xrotation Yrotation
                    JOINT rMid2
                    {
                      OFFSET -3.9766 -1.54 2.3863
                      CHANNELS 6 Xposition Yposition Zposition Zrotation Xrotation Yrotation
                      JOINT rMid2_End
                      {
                        OFFSET -1.4042 -1.926 1.125
                        CHANNELS 6 Xposition Yposition Zposition Zrotation Xrotation Yrotation
                        End Site
                        {
                          OFFSET -0.014 -0.0193 0.0113
                        }
                      }
                    }
                  }
                }
                JOINT rCarpal2
                {
                  OFFSET -2.0956 0.66 -0.3894
                  CHANNELS 6 Xposition Yposition Zposition Zrotation Xrotation Yrotation
                  JOINT rRing1
                  {
                    OFFSET -5.0395 -0.09 2.4971
                    CHANNELS 6 Xposition Yposition Zposition Zrotation Xrotation Yrotation
                    JOINT rRing2
                    {
                      OFFSET -3.7921 -1.552 1.4806
                      CHANNELS 6 Xposition Yposition Zposition Zrotation Xrotation Yrotation
                      JOINT rRing2_End
                      {
                        OFFSET -1.4655 -1.808 0.9609
                        CHANNELS 6 Xposition Yposition Zposition Zrotation Xrotation Yrotation
                        End Site
                        {
                          OFFSET -0.0147 -0.0181 0.0096
                        }
                      }
                    }
                  }
                  JOINT rPinky1
                  {
                    OFFSET -4.9141 -1.269 0.3592
                    CHANNELS 6 Xposition Yposition Zposition Zrotation Xrotation Yrotation
                    JOINT rPinky2
                    {
                      OFFSET -3.1477 -1.685 0.8462
                      CHANNELS 6 Xposition Yposition Zposition Zrotation Xrotation Yrotation
                      JOINT rPinky2_End
                      {
                        OFFSET -0.8055 -1.585 0.7955
                        CHANNELS 6 Xposition Yposition Zposition Zrotation Xrotation Yrotation
                        End Site
                        {
                          OFFSET -0.0081 -0.0158 0.008
                        }
                      }
                    }
                  }
                }
              }
            }
          }
        }
      }
    }
  }
  JOINT lThigh
  {
    OFFSET 8.367 -8.2066 0.5982
    CHANNELS 6 Xposition Yposition Zposition Zrotation Xrotation Yrotation
    JOINT lShin
    {
      OFFSET 2.1923 -43.463 -0.4932
      CHANNELS 6 Xposition Yposition Zposition Zrotation Xrotation Yrotation
      JOINT lFoot
      {
        OFFSET 0.7333 -45.8593 -2.6451
        CHANNELS 6 Xposition Yposition Zposition Zrotation Xrotation Yrotation
        End Site
        {
          OFFSET 2.6618 -4.2699 12.3931
        }
      }
    }
  }
  JOINT rThigh
  {
    OFFSET -8.367 -8.2066 0.5982
    CHANNELS 6 Xposition Yposition Zposition Zrotation Xrotation Yrotation
    JOINT rShin
    {
      OFFSET -2.1923 -43.463 -0.4931
      CHANNELS 6 Xposition Yposition Zposition Zrotation Xrotation Yrotation
      JOINT rFoot
      {
        OFFSET -0.7333 -45.8593 -2.6451
        CHANNELS 6 Xposition Yposition Zposition Zrotation Xrotation Yrotation
        End Site
        {
          OFFSET -2.6618 -4.2699 12.3931
        }
      }
    }
  }
}
MOTION
Frames:	4
Frame Time:	0.0333333
0 90.174 2.4664 0 0 -0 0 -1.186 -1.5018 0 0 -0 0 9.964 0.2134 0 0 -0 0 13.134 -3.2573 0 0 -0 0 20.686 -1.6905 0 0 -0 0 7.238 -0.1237 0 0 -0 1.7069 20.075 5.0056 0 0 -0 13.6458 -0.047 -4.849 1.66051 0.0835086 5.75766 28.3255 -0.9759 2.2888 -0.0175111 0.895433 15.7816 22.1583 -0.53 10.8316 7.95139e-016 -1.98785e-016 -0 0.786 0.112 2.5817 5.46658e-016 -3.97569e-016 -0 0.3601 -0.878 4.2331 5.96354e-016 0 -0 1.8127 -1.216 2.2227 3.97569e-016 1.98785e-016 9.54166e-015 0.9571 1.114 1.7695 1.49089e-016 -3.97569e-016 -0 4.1246 0.487 4.1451 6.4605e-016 0 3.18055e-015 3.4052 -1.454 2.7682 5.96354e-016 0 3.18055e-015 1.4531 -1.795 1.2713 8.94531e-016 -1.98785e-016 6.36111e-015 5.6954 0.21 2.1184 6.4605e-016 0 3.18055e-015 3.9766 -1.54 2.3863 5.96354e-016 0 3.18055e-015 1.4042 -1.926 1.125 8.94531e-016 -1.98785e-016 6.36111e-015 2.0956 0.66 -0.3894 1.49089e-016 -3.97569e-016 -0 5.0395 -0.09 2.4971 6.4605e-016 0 3.18055e-015 3.7921 -1.552 1.4806 5.96354e-016 0 3.18055e-015 1.4655 -1.808 0.9609 8.94531e-016 -1.98785e-016 6.36111e-015 4.9141 -1.269 0.3591 6.4605e-016 0 3.18055e-015 3.1477 -1.685 0.8462 5.96354e-016 0 3.18055e-015 0.8055 -1.585 0.7955 8.94531e-016 -1.98785e-016 6.36111e-015 -1.7069 20.075 5.0056 0 0 -0 -13.6458 -0.047 -4.849 -1.4496 0.0636048 -5.0245 -28.3255 -0.9759 2.2888 -1.74811 1.20616 -16.8394 -22.1583 -0.53 10.8316 -1.19271e-015 1.98785e-016 -3.18055e-015 -0.786 0.112 2.5817 -3.97569e-016 1.98785e-016 -3.18055e-015 -0.3601 -0.878 4.2331 -2.98177e-016 1.98785e-016 -3.18055e-015 -1.8127 -1.216 2.2227 -2.98177e-016 3.97569e-016 -0 -0.9571 1.114 1.7695 4.96962e-016 0 -6.36111e-015 -4.1246 0.487 4.1451 -9.93923e-017 3.97569e-016 -0 -3.4052 -1.454 2.7682 -8.94531e-016 5.96354e-016 -0 -1.4531 -1.795 1.2713 -3.97569e-016 3.97569e-016 -0 -5.6954 0.21 2.1184 -9.93923e-017 3.97569e-016 -0 -3.9766 -1.54 2.3863 -8.94531e-016 5.96354e-016 -0 -1.4042 -1.926 1.125 -3.97569e-016 3.97569e-016 -0 -2.0956 0.66 -0.3894 4.96962e-016 0 -6.36111e-015 -5.0395 -0.09 2.4971 -9.93923e-017 3.97569e-016 -0 -3.7921 -1.552 1.4806 -8.94531e-016 5.96354e-016 -0 -1.4655 -1.808 0.9609 -3.97569e-016 3.97569e-016 -0 -4.9141 -1.269 0.3592 -9.93923e-017 3.97569e-016 -0 -3.1477 -1.685 0.8462 -8.94531e-016 5.96354e-016 -0 -0.8055 -1.585 0.7955 -3.97569e-016 3.97569e-016 -0 8.367 -8.2066 0.5982 -4.66115 -1.03232 0.120763 2.1923 -43.463 -0.4932 0.00990601 1.55097 0.177175 0.7333 -45.8593 -2.6451 4.65196 -0.54114 -0.255042 -8.367 -8.2066 0.5982 4.66115 -1.03222 -0.120763 -2.1923 -43.463 -0.4931 -0.00990459 1.5509 -0.177176 -0.7333 -45.8593 -2.6451 -4.65196 -0.541171 0.255041 
-42.1682 49.0051 17.8961 -7.50112 -13.7183 70.9374 0 -1.186 -1.5018 -0.827611 11.92 -0.810184 0 9.964 0.2134 -1.52994 23.8496 -1.4899 0 13.134 -3.2573 -1.52993 23.8496 -1.48992 0 20.686 -1.6905 0.000356782 -20.0002 0.000171997 7.10543e-015 7.238 -0.1237 -9.56456e-006 -8.88983 2.91854e-007 1.7069 20.075 5.0056 0.00121344 -7.4094 0.00159541 13.6458 -0.047 -4.849 18.2207 -26.0918 -55.9172 28.3255 -0.9759 2.2888 0.080961 0.654339 7.63399 22.1583 -0.53 10.8316 38.806 -13.6022 5.54296 0.786 0.112 2.5817 -4.07509e-015 -2.38542e-015 1.59028e-015 0.3601 -0.878 4.2331 -5.26779e-015 -1.59028e-015 1.59028e-015 1.8127 -1.216 2.2227 -5.1684e-015 -2.38542e-015 -0 0.9571 1.114 1.7695 -2.48481e-015 -7.95139e-016 1.59028e-015 4.1246 0.487 4.1451 -1.78906e-015 -1.59028e-015 7.15625e-015 3.4052 -1.454 2.7682 -1.59028e-015 -1.59028e-015 2.38542e-015 1.4531 -1.795 1.2713 -4.27387e-015 -3.18055e-015 2.38542e-015 5.6954 0.21 2.1184 -1.78906e-015 -1.59028e-015 7.15625e-015 3.9766 -1.54 2.3863 -1.59028e-015 -1.59028e-015 2.38542e-015 1.4042 -1.926 1.125 -4.27387e-015 -3.18055e-015 2.38542e-015 2.0956 0.66 -0.3894 -2.48481e-015 -7.95139e-016 1.59028e-015 5.0395 -0.09 2.4971 -1.78906e-015 -1.59028e-015 7.15625e-015 3.7921 -1.552 1.4806 -1.59028e-015 -1.59028e-015 2.38542e-015 1.4655 -1.808 0.9609 -4.27387e-015 -3.18055e-015 2.38542e-015 4.9141 -1.269 0.3591 -1.78906e-015 -1.59028e-015 7.15625e-015 3.1477 -1.685 0.8462 -1.59028e-015 -1.59028e-015 2.38542e-015 0.8055 -1.585 0.7955 -4.27387e-015 -3.18055e-015 2.38542e-015 -1.7069 20.075 5.0056 -9.44135e-007 -7.40903 3.61117e-006 -13.6458 -0.047 -4.849 15.2667 -25.8793 56.6749 -28.3255 -0.9759 2.2888 -9.30878 12.7809 8.44669 -22.1583 -0.53 10.8316 -39.0916 9.29504 -3.23629 -0.786 0.112 2.5817 3.49495e-007 1.6151e-007 1.83032e-007 -0.3601 -0.878 4.2331 3.49495e-007 1.6151e-007 1.83032e-007 -1.8127 -1.216 2.2227 -6.36111e-015 0 3.18055e-015 -0.9571 1.114 1.7695 -1.76556e-031 -3.18055e-015 -3.18055e-015 -4.1246 0.487 4.1451 3.49495e-007 1.6151e-007 1.83032e-007 -3.4052 -1.454 2.7682 3.49495e-007 1.6151e-007 1.83032e-007 -1.4531 -1.795 1.2713 -6.36111e-015 6.36111e-015 4.77083e-015 -5.6954 0.21 2.1184 3.49495e-007 1.6151e-007 1.83032e-007 -3.9766 -1.54 2.3863 3.49495e-007 1.6151e-007 1.83032e-007 -1.4042 -1.926 1.125 -6.36111e-015 6.36111e-015 4.77083e-015 -2.0956 0.66 -0.3894 -1.76556e-031 -3.18055e-015 -3.18055e-015 -5.0395 -0.09 2.4971 3.49495e-007 1.6151e-007 1.83032e-007 -3.7921 -1.552 1.4806 3.49495e-007 1.6151e-007 1.83032e-007 -1.4655 -1.808 0.9609 -6.36111e-015 6.36111e-015 4.77083e-015 -4.9141 -1.269 0.3592 3.49495e-007 1.6151e-007 1.83032e-007 -3.1477 -1.685 0.8462 3.49495e-007 1.6151e-007 1.83032e-007 -0.8055 -1.585 0.7955 -6.36111e-015 6.36111e-015 4.77083e-015 8.367 -8.2066 0.5982 2.17478 -24.6956 -2.21748 2.1923 -43.463 -0.4932 1.9125 81.6346 2.37516 0.7333 -45.8593 -2.6451 5.43562 52.9904 -0.0996916 -8.367 -8.2066 0.5982 -3.40314 -26.0225 -3.19496 -2.1923 -43.463 -0.4931 -1.64134 82.3024 -2.37562 -0.7333 -45.8593 -2.6451 -4.95628 51.1929 -0.0449509 
-63.0509 29.7764 27.9257 -7.7074 5.3396 93.9919 0 -1.186 -1.5018 -2.65272 16.7472 -0.2299 0 9.964 0.2134 -5.61921 33.4857 0.422524 -3.55271e-015 13.134 -3.2573 -5.61926 33.4857 0.42261 3.55271e-015 20.686 -1.6905 0.000964288 -29.0005 0.000471858 0 7.238 -0.1237 4.22603e-007 -12.8903 -1.10261e-006 1.7069 20.075 5.0056 -0.00456667 -10.7418 -0.00559769 13.6458 -0.047 -4.849 17.1428 -13.3207 -78.5227 28.3255 -0.9759 2.2888 0.113903 0.541786 3.96783 22.1583 -0.53 10.8316 57.1566 -18.0222 10.9116 0.786 0.112 2.5817 -8.45492e-007 9.43852e-008 3.07407e-008 0.3601 -0.878 4.2331 -7.67559e-007 4.52183e-007 9.08707e-007 1.8127 -1.216 2.2227 -8.45492e-007 9.43852e-008 3.07407e-008 0.9571 1.114 1.7695 1.59028e-015 0 1.59028e-015 4.1246 0.487 4.1451 -8.45492e-007 9.43852e-008 3.07407e-008 3.4052 -1.454 2.7682 -7.67559e-007 4.52183e-007 9.08707e-007 1.4531 -1.795 1.2713 -8.45492e-007 9.43852e-008 3.07407e-008 5.6954 0.21 2.1184 -8.45492e-007 9.43852e-008 3.07407e-008 3.9766 -1.54 2.3863 -7.67559e-007 4.52183e-007 9.08707e-007 1.4042 -1.926 1.125 -8.45492e-007 9.43852e-008 3.07407e-008 2.0956 0.66 -0.3894 1.59028e-015 0 1.59028e-015 5.0395 -0.09 2.4971 -8.45492e-007 9.43852e-008 3.07407e-008 3.7921 -1.552 1.4806 -7.67559e-007 4.52183e-007 9.08707e-007 1.4655 -1.808 0.9609 -8.45492e-007 9.43852e-008 3.07407e-008 4.9141 -1.269 0.3591 -8.45492e-007 9.43852e-008 3.07407e-008 3.1477 -1.685 0.8462 -7.67559e-007 4.52183e-007 9.08707e-007 0.8055 -1.585 0.7955 -8.45492e-007 9.43852e-008 3.07407e-008 -1.7069 20.075 5.0056 -4.78453e-006 -10.7431 1.36307e-007 -13.6458 -0.047 -4.849 31.1486 -13.1414 79.3141 -28.3255 -0.9759 2.2888 -15.7497 15.2811 20.407 -22.1583 -0.53 10.8316 -55.2738 15.2786 -6.58459 -0.786 0.112 2.5817 2.47199e-007 1.12941e-008 -1.68679e-006 -0.3601 -0.878 4.2331 9.39387e-007 -1.6388e-006 1.12305e-007 -1.8127 -1.216 2.2227 2.47199e-007 1.12941e-008 -1.68679e-006 -0.9571 1.114 1.7695 -3.97569e-016 -3.18055e-015 1.59028e-015 -4.1246 0.487 4.1451 2.47199e-007 1.12941e-008 -1.68679e-006 -3.4052 -1.454 2.7682 9.39387e-007 -1.6388e-006 1.12305e-007 -1.4531 -1.795 1.2713 2.47199e-007 1.12941e-008 -1.68679e-006 -5.6954 0.21 2.1184 2.47199e-007 1.12941e-008 -1.68679e-006 -3.9766 -1.54 2.3863 9.39387e-007 -1.6388e-006 1.12305e-007 -1.4042 -1.926 1.125 2.47199e-007 1.12941e-008 -1.68679e-006 -2.0956 0.66 -0.3894 -3.97569e-016 -3.18055e-015 1.59028e-015 -5.0395 -0.09 2.4971 2.47199e-007 1.12941e-008 -1.68679e-006 -3.7921 -1.552 1.4806 9.39387e-007 -1.6388e-006 1.12305e-007 -1.4655 -1.808 0.9609 2.47199e-007 1.12941e-008 -1.68679e-006 -4.9141 -1.269 0.3592 2.47199e-007 1.12941e-008 -1.68679e-006 -3.1477 -1.685 0.8462 9.39387e-007 -1.6388e-006 1.12305e-007 -0.8055 -1.585 0.7955 2.47199e-007 1.12941e-008 -1.68679e-006 8.367 -8.2066 0.5982 3.51279 -37.5208 -1.67572 2.1923 -43.463 -0.4932 178.996 59.5177 -171.029 0.7333 -45.8593 -2.6451 2.7646 76.4712 3.05915 -8.367 -8.2066 0.5982 -7.0188 -38.3033 -7.25101 -2.1923 -43.463 -0.4931 -178.906 62.8826 171.134 -0.7333 -45.8593 -2.6451 -3.68517 76.8223 -2.16797 
-58.3853 34.1586 25.5423 -7.00248 -0.0023482 89.998 0 -1.186 -1.5018 -2.15694 15.7993 -0.403033 3.55271e-015 9.964 0.2134 -4.46495 31.6022 -0.168631 0 13.134 -3.2573 -4.46495 31.6022 -0.16863 3.55271e-015 20.686 -1.6905 -0.00016362 -27.0003 -0.000114235 -3.55271e-015 7.238 -0.1237 -1.11174e-005 -12.0013 -3.7168e-007 1.7069 20.075 5.0056 -0.0173312 -9.99723 -0.0215307 13.6458 -0.047 -4.849 17.5867 -18.1248 -74.3092 28.3255 -0.9759 2.2888 0.107212 0.566973 4.78252 22.1583 -0.53 10.8316 52.5501 -17.5848 9.5242 0.786 0.112 2.5817 -2.68359e-015 -2.38542e-015 -0 0.3601 -0.878 4.2331 -1.59028e-015 -7.95139e-016 1.59028e-015 1.8127 -1.216 2.2227 -6.95746e-016 -7.95139e-016 1.59028e-015 0.9571 1.114 1.7695 -1.98785e-015 -7.95139e-016 -1.59028e-015 4.1246 0.487 4.1451 -1.78906e-015 0 7.95139e-015 3.4052 -1.454 2.7682 -4.96962e-016 -1.59028e-015 -0 1.4531 -1.795 1.2713 -7.95139e-016 -2.38542e-015 4.77083e-015 5.6954 0.21 2.1184 -1.78906e-015 0 7.95139e-015 3.9766 -1.54 2.3863 -4.96962e-016 -1.59028e-015 -0 1.4042 -1.926 1.125 -7.95139e-016 -2.38542e-015 4.77083e-015 2.0956 0.66 -0.3894 -1.98785e-015 -7.95139e-016 -1.59028e-015 5.0395 -0.09 2.4971 -1.78906e-015 0 7.95139e-015 3.7921 -1.552 1.4806 -4.96962e-016 -1.59028e-015 -0 1.4655 -1.808 0.9609 -7.95139e-016 -2.38542e-015 4.77083e-015 4.9141 -1.269 0.3591 -1.78906e-015 0 7.95139e-015 3.1477 -1.685 0.8462 -4.96962e-016 -1.59028e-015 -0 0.8055 -1.585 0.7955 -7.95139e-016 -2.38542e-015 4.77083e-015 -1.7069 20.075 5.0056 -5.21905e-006 -10.0022 1.65122e-005 -13.6458 -0.047 -4.849 27.1715 -18.092 75.337 -28.3255 -0.9759 2.2888 -13.5894 14.1935 17.5296 -22.1583 -0.53 10.8316 -51.5869 13.8738 -5.68808 -0.786 0.112 2.5817 1.76556e-031 -6.36111e-015 1.59028e-015 -0.3601 -0.878 4.2331 -7.95139e-016 -1.27222e-014 1.59028e-015 -1.8127 -1.216 2.2227 -1.59028e-015 -3.18055e-015 -0 -0.9571 1.114 1.7695 7.95139e-016 3.18055e-015 -0 -4.1246 0.487 4.1451 -3.97569e-015 -6.36111e-015 7.95139e-015 -3.4052 -1.454 2.7682 -7.95139e-016 -6.36111e-015 1.59028e-015 -1.4531 -1.795 1.2713 -7.95139e-016 -3.18055e-015 -0 -5.6954 0.21 2.1184 -3.97569e-015 -6.36111e-015 7.95139e-015 -3.9766 -1.54 2.3863 -7.95139e-016 -6.36111e-015 1.59028e-015 -1.4042 -1.926 1.125 -7.95139e-016 -3.18055e-015 -0 -2.0956 0.66 -0.3894 7.95139e-016 3.18055e-015 -0 -5.0395 -0.09 2.4971 -3.97569e-015 -6.36111e-015 7.95139e-015 -3.7921 -1.552 1.4806 -7.95139e-016 -6.36111e-015 1.59028e-015 -1.4655 -1.808 0.9609 -7.95139e-016 -3.18055e-015 -0 -4.9141 -1.269 0.3592 -3.97569e-015 -6.36111e-015 7.95139e-015 -3.1477 -1.685 0.8462 -7.95139e-016 -6.36111e-015 1.59028e-015 -0.8055 -1.585 0.7955 -7.95139e-016 -3.18055e-015 -0 8.367 -8.2066 0.5982 3.23958 -34.5682 -2.03719 2.1923 -43.463 -0.4932 178.799 68.1263 -171.813 0.7333 -45.8593 -2.6451 4.34968 71.1407 1.40902 -8.367 -8.2066 0.5982 -6.11853 -35.2584 -5.97913 -2.1923 -43.463 -0.4931 -178.755 70.6448 172.056 -0.7333 -45.8593 -2.6451 -4.62754 70.8619 -1.01716 
